Coordinates
version=1
nRows=10
nColumns=40
inDegrees=yes

Units are S.I. units (second, meters, Newtons, ...)
Angles are in degrees.

endheader
time	pelvis_tilt	pelvis_list	pelvis_rotation	pelvis_tx	pelvis_ty	pelvis_tz	hip_flexion_r	hip_adduction_r	hip_rotation_r	knee_angle_r	knee_angle_r_beta	ankle_angle_r	subtalar_angle_r	mtp_angle_r	hip_flexion_l	hip_adduction_l	hip_rotation_l	knee_angle_l	knee_angle_l_beta	ankle_angle_l	subtalar_angle_l	mtp_angle_l	lumbar_extension	lumbar_bending	lumbar_rotation	arm_flex_r	arm_add_r	arm_rot_r	elbow_flex_r	pro_sup_r	wrist_flex_r	wrist_dev_r	arm_flex_l	arm_add_l	arm_rot_l	elbow_flex_l	pro_sup_l	wrist_flex_l	wrist_dev_l
     48.01750000	     -6.12403129	     -4.24596290	      3.78811175	      1.03456806	      0.91892784	      0.48138395	      6.04204519	     -2.78899081	    -12.54571623	     32.44010613	     32.44010613	     15.03770031	     -6.04140860	     -8.34727457	     28.51637276	     -3.68976830	      0.83734489	     26.18967593	     26.18967593	      7.26914342	    -13.08931250	      3.78763471	     -9.77980458	      5.32432305	      4.41470524	     12.86594624	    -15.37076395	     12.07860191	     84.86305365	     44.62223110	      0.00000000	      0.00000000	     -5.89827501	     -7.22582901	     -4.48994322	     36.15199023	     46.55532147	      0.00000000	      0.00000000
     48.02971429	     -6.19858928	     -4.06392759	      3.58823567	      1.03431358	      0.91976077	      0.47888298	      7.54701395	     -3.54792333	    -12.12491673	     35.68929538	     35.68929538	     13.37873955	     -7.46646166	     -9.50128702	     27.90970782	     -3.48318827	      0.40801971	     25.99045956	     25.99045956	      7.77110640	    -12.87382727	      3.64058699	     -9.87234576	      5.11165174	      4.47585346	     12.31163918	    -15.61819821	     12.20987023	     83.76977992	     44.65612795	      0.00000000	      0.00000000	     -5.35800283	     -7.40588161	     -4.63846553	     37.15356238	     46.57971138	      0.00000000	      0.00000000
     48.04192857	     -6.32909243	     -4.02421366	      3.38028711	      1.03393482	      0.92037877	      0.47680335	      9.15640167	     -3.90919588	    -11.28831797	     38.68118186	     38.68118186	     10.15755496	    -10.64277789	    -13.46888973	     27.42995871	     -3.48513054	     -0.09840153	     25.86911447	     25.86911447	      8.25854179	    -12.40029781	      3.26186314	     -9.84635222	      5.01461523	      4.12318777	     12.30629666	    -15.37145755	     12.34297031	     81.03115519	     44.76200704	      0.00000000	      0.00000000	     -5.92100811	     -7.77945096	     -5.02154292	     40.45657502	     46.61285312	      0.00000000	      0.00000000
     48.05414286	     -6.40422397	     -3.75471492	      3.19806565	      1.03345757	      0.92098293	      0.47448070	     10.96771568	     -4.81410713	    -11.01933981	     42.30178492	     42.30178492	      8.32975866	    -11.77166358	    -13.76185498	     26.75433435	     -3.19267624	     -0.57684863	     25.52081340	     25.52081340	      8.67020345	    -12.06922838	      3.02773293	     -9.93071767	      4.71917237	      4.06026603	     11.68763305	    -15.67358461	     12.56033185	     80.24043636	     44.78102882	      0.00000000	      0.00000000	     -5.23585843	     -8.01965998	     -5.14587036	     41.16026733	     46.63647340	      0.00000000	      0.00000000
     48.06635714	     -6.54597464	     -3.57610406	      2.95264804	      1.03280532	      0.92136146	      0.47255271	     12.98449158	     -5.44597310	    -10.44263498	     45.92284897	     45.92284897	      6.28057840	    -13.44679716	    -13.61155652	     26.20402525	     -3.03911209	     -1.08453730	     25.23793998	     25.23793998	      9.07220240	    -11.66900719	      2.68279710	     -9.93324728	      4.44848062	      4.14669918	     11.00836133	    -15.99910012	     12.65786588	     78.97011953	     44.81978875	      0.00000000	      0.00000000	     -4.65198919	     -8.29506001	     -5.29882883	     42.24172838	     46.66443990	      0.00000000	      0.00000000
     48.07857143	     -6.57222841	     -3.36214558	      2.78557256	      1.03205036	      0.92182293	      0.47050983	     14.91516039	     -6.10345769	     -9.94161475	     49.46872643	     49.46872643	      4.24913457	    -14.98988247	    -13.08195751	     25.58415338	     -2.83006157	     -1.56658939	     25.02713430	     25.02713430	      9.43083591	    -11.23855656	      2.34133771	    -10.06718933	      4.28639525	      4.09667920	     10.43238841	    -16.27348297	     12.63557960	     77.72231946	     44.86133629	      0.00000000	      0.00000000	     -3.98514841	     -8.63082969	     -5.43723942	     43.33415481	     46.69294868	      0.00000000	      0.00000000
     48.09078571	     -6.71996689	     -3.28667221	      2.50710847	      1.03121523	      0.92218964	      0.46890721	     17.03200177	     -6.42956332	     -9.22366551	     52.83908418	     52.83908418	      2.34629142	    -16.49882630	    -11.71220224	     25.08458944	     -2.84221165	     -2.21235440	     24.77286574	     24.77286574	      9.77492022	    -10.67229734	      1.85325041	    -10.05418825	      4.18248161	      4.16948370	      9.77807842	    -16.39065718	     12.44158367	     75.67041185	     44.93617779	      0.00000000	      0.00000000	     -3.68636049	     -8.98934583	     -5.57326817	     45.06086821	     46.72161213	      0.00000000	      0.00000000
     48.10300000	     -6.72557751	     -3.13426766	      2.29570572	      1.03033733	      0.92260722	      0.46723569	     18.99875866	     -6.91569977	     -8.76824414	     56.11539968	     56.11539968	      0.92005076	    -17.40923314	    -10.04848004	     24.46148869	     -2.73703962	     -2.74354174	     24.56796419	     24.56796419	     10.11777152	    -10.14354327	      1.40938233	    -10.20707486	      4.02763843	      4.01343232	      9.30885113	    -16.46022045	     12.15434596	     73.76784453	     45.00955130	      0.00000000	      0.00000000	     -3.25956698	     -9.43209472	     -5.67608921	     46.69462534	     46.74901542	      0.00000000	      0.00000000
     48.11521429	     -6.61304183	     -3.23450525	      2.16169565	      1.02949770	      0.92328083	      0.46587039	     20.91625756	     -6.92041329	     -8.23879859	     59.40408150	     59.40408150	      1.50626650	    -17.28912305	     -2.92003900	     23.77902935	     -2.95729684	     -3.33030162	     24.43970133	     24.43970133	     10.38184069	     -9.30100744	      0.35898342	    -10.43303196	      4.10883467	      3.00067294	     10.02937670	    -15.23272783	     10.89600384	     68.84013790	     45.22689115	      0.00000000	      0.00000000	     -4.34885128	    -10.30801206	     -5.52852099	     51.12229889	     46.76204336	      0.00000000	      0.00000000
     48.12742857	     -6.60371807	     -3.17704356	      2.02262352	      1.02851566	      0.92388681	      0.46435703	     22.82191567	     -7.17464488	     -7.83476018	     62.21479038	     62.21479038	      1.30543751	    -17.42132062	      0.68140213	     23.11281097	     -2.87756835	     -3.59410361	     24.12625777	     24.12625777	     10.63632297	     -9.03724619	      0.05156897	    -10.58439964	      4.09646455	      2.62544680	      9.74348108	    -15.38661998	     10.96230067	     66.64379792	     45.29605779	      0.00000000	      0.00000000	     -3.92816501	    -10.79613823	     -5.76946302	     52.59991626	     46.80201636	      0.00000000	      0.00000000
